<svg xmlns="http://www.w3.org/2000/svg" width="315" height="315" viewBox="0 0 315 315"><g transform="translate(1531.335 -288.772)"><circle cx="157.5" cy="157.5" r="157.5" transform="translate(-1531.335 288.772)" fill="#f2fff1"/><line y2="10.409" transform="translate(-1484.947 465.347)" fill="none" stroke="#7bed8d" stroke-linecap="round" stroke-linejoin="round" stroke-width="4"/><line x1="10.409" transform="translate(-1490.151 470.552)" fill="none" stroke="#7bed8d" stroke-linecap="round" stroke-linejoin="round" stroke-width="4"/><line y2="10.409" transform="translate(-1283.53 521.364)" fill="none" stroke="#7bed8d" stroke-linecap="round" stroke-linejoin="round" stroke-width="4"/><line x1="10.409" transform="translate(-1288.735 526.568)" fill="none" stroke="#7bed8d" stroke-linecap="round" stroke-linejoin="round" stroke-width="4"/><g transform="translate(-130 40)" opacity="0"><line y2="10.409" transform="translate(-1283.53 521.364)" fill="none" stroke="#7bed8d" stroke-linecap="round" stroke-linejoin="round" stroke-width="4"/><line x1="10.409" transform="translate(-1288.735 526.568)" fill="none" stroke="#7bed8d" stroke-linecap="round" stroke-linejoin="round" stroke-width="4"/></g><circle cx="6.169" cy="6.169" r="6.169" transform="translate(-1481.509 383.699)" fill="none" stroke="#7bed8d" stroke-linecap="round" stroke-linejoin="round" stroke-width="4"/><circle cx="6.169" cy="6.169" r="6.169" transform="translate(-1273.825 430.672)" fill="none" stroke="#7bed8d" stroke-linecap="round" stroke-linejoin="round" stroke-width="4"/><circle cx="6.169" cy="6.169" r="6.169" transform="translate(-1356.937 325.091)" fill="none" stroke="#7bed8d" stroke-linecap="round" stroke-linejoin="round" stroke-width="4"/><g transform="translate(-441.196 103.158)" opacity="0"><path d="M-911.522,282.614h-42.215a17.257,17.257,0,0,0-17.237,17.237v23.655a17.257,17.257,0,0,0,17.237,17.237h10.643l10.465,9.057,10.464-9.057h10.643a17.257,17.257,0,0,0,17.237-17.237V299.851A17.257,17.257,0,0,0-911.522,282.614Z" fill="#f2fff1" stroke="#7bed8d" stroke-linecap="round" stroke-linejoin="round" stroke-width="4"/><path d="M-916.673,305.135a8.259,8.259,0,0,0-7.745-5.791,7.95,7.95,0,0,0-5.641,2.372h0a13.171,13.171,0,0,0-2.57,3.224,13.188,13.188,0,0,0-2.571-3.224h0a7.95,7.95,0,0,0-5.641-2.372,8.259,8.259,0,0,0-7.745,5.791c-3.191,8.942,9.443,18.671,14.206,21.953a3.086,3.086,0,0,0,3.5,0C-926.116,323.806-913.482,314.077-916.673,305.135Z" transform="translate(0 100)" fill="#acffb2" stroke="#7bed8d" stroke-linecap="round" stroke-linejoin="round" stroke-width="4"/></g><path d="M-1400.882,506.791h75.744a14.844,14.844,0,0,0,14.968-13.869,14.573,14.573,0,0,0-14.556-15.277" fill="none" stroke="#7bed8d" stroke-linecap="round" stroke-linejoin="round" stroke-width="4"/><path d="M-1311.4,486.3c0,.011.01.021.01.031,0-.01-.01-.02-.01-.031l-35.523-86.612h-90.831a15.141,15.141,0,0,0-14,20.9l16.968,41.237a25.519,25.519,0,0,0,23.6,15.821h86.459A14.583,14.583,0,0,1-1311.4,486.3Z" fill="#dfffca" stroke="#7bed8d" stroke-linecap="round" stroke-linejoin="round" stroke-width="4"/><path d="M-1398.365,506.791a25.53,25.53,0,0,1-23.609-15.816" fill="none" stroke="#7bed8d" stroke-linecap="round" stroke-linejoin="round" stroke-width="4"/><path d="M-1325.513,385.12a14.573,14.573,0,0,1-14.573,14.573h-6.839" fill="none" stroke="#7bed8d" stroke-linecap="round" stroke-linejoin="round" stroke-width="4"/><circle cx="14.573" cy="14.573" r="14.573" transform="translate(-1403.706 506.791)" fill="#dfffca" stroke="#7bed8d" stroke-linecap="round" stroke-linejoin="round" stroke-width="4"/><path d="M-1394.582,520.454a4.6,4.6,0,0,1,4.6-4.6" fill="none" stroke="#7bed8d" stroke-linecap="round" stroke-linejoin="round" stroke-width="4"/><line x2="16.966" y2="41.241" transform="translate(-1430.233 418.069)" fill="none" stroke="#7bed8d" stroke-linecap="round" stroke-linejoin="round" stroke-width="4"/><line x2="16.966" y2="41.241" transform="translate(-1407.3 418.069)" fill="none" stroke="#7bed8d" stroke-linecap="round" stroke-linejoin="round" stroke-width="4"/><line x2="16.966" y2="41.241" transform="translate(-1384.366 418.069)" fill="none" stroke="#7bed8d" stroke-linecap="round" stroke-linejoin="round" stroke-width="4"/><line x2="16.966" y2="41.241" transform="translate(-1361.432 418.069)" fill="none" stroke="#7bed8d" stroke-linecap="round" stroke-linejoin="round" stroke-width="4"/><path d="M-1454.6,486.44" fill="none" stroke="#7bed8d" stroke-linecap="round" stroke-linejoin="round" stroke-width="8"/><line x2="67.543" transform="translate(-1421.75 438.69)" fill="none" stroke="#7bed8d" stroke-linecap="round" stroke-linejoin="round" stroke-width="4"/><path d="M-1294.438,376.082a8.935,8.935,0,0,0-8.263-5.535h-8.239a14.573,14.573,0,0,0-14.573,14.573h25.02a6.548,6.548,0,0,0,6.055-9.038Z" fill="#acffb2" stroke="#7bed8d" stroke-linecap="round" stroke-linejoin="round" stroke-width="4"/><circle cx="14.573" cy="14.573" r="14.573" transform="translate(-1350.768 506.791)" fill="#dfffca" stroke="#7bed8d" stroke-linecap="round" stroke-linejoin="round" stroke-width="4"/><path d="M-1341.644,520.454a4.6,4.6,0,0,1,4.6-4.6" fill="none" stroke="#7bed8d" stroke-linecap="round" stroke-linejoin="round" stroke-width="4"/><path d="M-1371.2,398.563c.105-8.518-4.914-18.4-14.843-17.307a16.822,16.822,0,0,0-3.89.913,6.807,6.807,0,0,1-4.7,0,16.815,16.815,0,0,0-3.889-.913c-9.93-1.1-14.948,8.789-14.843,17.307" fill="#dfffca" stroke="#7bed8d" stroke-linecap="round" stroke-linejoin="round" stroke-width="4"/><path d="M-1392.281,381.551a7.927,7.927,0,0,0-7.931-7.932" fill="none" stroke="#7bed8d" stroke-linecap="round" stroke-linejoin="round" stroke-width="4"/><path d="M-1380.7,369.97a11.574,11.574,0,0,1-11.581,11.581A11.575,11.575,0,0,1-1380.7,369.97Z" fill="#dfffca" stroke="#7bed8d" stroke-linecap="round" stroke-linejoin="round" stroke-width="4"/><path d="M-1398.921,389.172s-5.919,2.167-6.679,9.917" fill="#dfffca" stroke="#7bed8d" stroke-linecap="round" stroke-linejoin="round" stroke-width="4"/></g></svg>